<?xml version="1.0" encoding="utf-8"?>
<!-- Generator: Adobe Illustrator 26.3.0, SVG Export Plug-In . SVG Version: 6.00 Build 0)  -->
<svg version="1.1" id="Layer_1" xmlns="http://www.w3.org/2000/svg" xmlns:xlink="http://www.w3.org/1999/xlink" x="0px" y="0px"
	 viewBox="0 0 640 640" style="enable-background:new 0 0 640 640;" xml:space="preserve">
<path d="M168.8,17.5c-41.7,0-75.6,33.9-75.6,75.6v453.8c0,41.7,33.9,75.6,75.6,75.6h302.5c41.7,0,75.6-33.9,75.6-75.6V93.1
	c0-41.7-33.9-75.6-75.6-75.6H168.8z M206.6,93.1h226.9c20.9,0,37.8,16.9,37.8,37.8v37.8c0,20.9-16.9,37.8-37.8,37.8H206.6
	c-20.9,0-37.8-16.9-37.8-37.8v-37.8C168.8,110,185.6,93.1,206.6,93.1z M225.5,291.6c0,15.7-12.6,28.4-28.4,28.4
	s-28.4-12.6-28.4-28.4s12.6-28.4,28.4-28.4S225.5,275.9,225.5,291.6z M320,320c-15.7,0-28.4-12.6-28.4-28.4s12.6-28.4,28.4-28.4
	s28.4,12.6,28.4,28.4S335.7,320,320,320z M471.2,291.6c0,15.7-12.6,28.4-28.4,28.4s-28.4-12.6-28.4-28.4s12.6-28.4,28.4-28.4
	S471.2,275.9,471.2,291.6z M197.1,433.4c-15.7,0-28.4-12.6-28.4-28.4s12.6-28.4,28.4-28.4s28.4,12.6,28.4,28.4
	S212.8,433.4,197.1,433.4z M348.4,405.1c0,15.7-12.6,28.4-28.4,28.4s-28.4-12.6-28.4-28.4s12.6-28.4,28.4-28.4
	S348.4,389.4,348.4,405.1z M442.9,433.4c-15.7,0-28.4-12.6-28.4-28.4s12.6-28.4,28.4-28.4s28.4,12.6,28.4,28.4
	S458.6,433.4,442.9,433.4z M168.8,518.5c0-15.7,12.6-28.4,28.4-28.4h132.3c15.7,0,28.4,12.6,28.4,28.4s-12.6,28.4-28.4,28.4H197.1
	C181.4,546.9,168.8,534.2,168.8,518.5z M442.9,490.2c15.7,0,28.4,12.6,28.4,28.4s-12.6,28.4-28.4,28.4s-28.4-12.6-28.4-28.4
	S427.2,490.2,442.9,490.2z"/>
</svg>
