<?xml version="1.0" encoding="utf-8"?>
<!-- Generator: Adobe Illustrator 26.3.0, SVG Export Plug-In . SVG Version: 6.00 Build 0)  -->
<svg version="1.1" id="Layer_1" xmlns="http://www.w3.org/2000/svg" xmlns:xlink="http://www.w3.org/1999/xlink" x="0px" y="0px"
	 viewBox="0 0 512 512" style="enable-background:new 0 0 512 512;" xml:space="preserve">
<style type="text/css">
	.st0{fill:#231F20;stroke:#231F20;stroke-width:15;stroke-miterlimit:10;}
</style>
<path class="st0" d="M408.2,210.3c0,43.7-14.2,84-38,116.7l120.4,120.5c11.9,11.9,11.9,31.2,0,43.1c-11.9,11.9-31.2,11.9-43.1,0
	L327.1,370.1c-32.7,24-73,38-116.7,38c-109.3,0-197.8-88.5-197.8-197.8S101.1,12.5,210.4,12.5S408.2,101,408.2,210.3z M210.4,347.3
	c75.6,0,136.9-61.3,136.9-136.9S286,73.4,210.4,73.4S73.4,134.7,73.4,210.3S134.7,347.3,210.4,347.3z"/>
</svg>
