<?xml version="1.0" encoding="utf-8"?>
<!-- Generator: Adobe Illustrator 26.3.0, SVG Export Plug-In . SVG Version: 6.00 Build 0)  -->
<svg version="1.1" id="Layer_1" xmlns="http://www.w3.org/2000/svg" xmlns:xlink="http://www.w3.org/1999/xlink" x="0px" y="0px"
	 viewBox="0 0 576 512" style="enable-background:new 0 0 576 512;" xml:space="preserve">
<style type="text/css">
	.st0{stroke:#000000;stroke-width:30;stroke-miterlimit:10;}
</style>
<path class="st0" d="M533.6,255.5c0,15.4-12.8,27.4-27.3,27.4H479l0.6,136.7c0,2.3-0.2,4.6-0.4,6.9v13.8c0,18.9-15.3,34.1-34.1,34.1
	h-13.7c-0.9,0-1.9,0-2.8-0.1c-1.2,0.1-2.4,0.1-3.6,0.1l-27.7-0.1h-20.5c-18.9,0-34.1-15.3-34.1-34.1v-20.5v-54.6
	c0-15.1-12.2-27.3-27.3-27.3h-54.6c-15.1,0-27.3,12.2-27.3,27.3v54.6v20.5c0,18.9-15.3,34.1-34.1,34.1h-20.5h-27.2
	c-1.3,0-2.6-0.1-3.8-0.2c-1,0.1-2,0.2-3.1,0.2h-13.7c-18.9,0-34.1-15.3-34.1-34.1v-95.6c0-0.8,0-1.6,0.1-2.4v-59.5H69.6
	c-15.4,0-27.3-11.9-27.3-27.4c0-7.7,2.6-14.5,8.5-20.5L269.5,44.3c6-6,12.8-6.8,18.8-6.8s12.8,1.7,17.9,6l218,191.6
	C531.1,241,534.5,247.8,533.6,255.5z"/>
</svg>
