<?xml version="1.0" encoding="utf-8"?>
<!-- Generator: Adobe Illustrator 26.3.0, SVG Export Plug-In . SVG Version: 6.00 Build 0)  -->
<svg version="1.1" id="Layer_1" xmlns="http://www.w3.org/2000/svg" xmlns:xlink="http://www.w3.org/1999/xlink" x="0px" y="0px"
	 viewBox="0 0 541.1 541.1" style="enable-background:new 0 0 541.1 541.1;" xml:space="preserve">
<style type="text/css">
	.st0{fill:url(#SVGID_1_);}
	.st1{fill:url(#SVGID_00000054253459374034861960000001868825946005735843_);}
	.st2{fill:url(#SVGID_00000006680439611503024720000014805339895702288034_);}
	.st3{fill:url(#SVGID_00000114057643323609918940000001373409768235694728_);}
	.st4{fill:url(#SVGID_00000008833324970135635240000002357420565480024205_);}
	.st5{fill:url(#SVGID_00000167359707057619587830000001820209173465255092_);}
</style>
<g>
	<g>
		<g>
			<path d="M85.1,325.8l9.6-13.5c5.9,6.1,15,11.3,26.6,11.3c9.8,0,14.5-4.5,14.5-9.3c0-14.8-48.1-4.6-48.1-36.1
				c0-13.9,12-25.4,31.7-25.4c13.3,0,24.3,4,32.6,11.6l-9.9,13c-6.8-6.3-15.8-9.1-24.3-9.1c-7.6,0-11.9,3.4-11.9,8.4
				c0,13.3,48,4.4,48,35.6c0,15.3-10.9,26.8-33.4,26.8C104.4,339.1,92.9,333.7,85.1,325.8z"/>
			<path d="M211.5,337.6l-12.8-41.2l-12.8,41.2h-17l-18.4-60.5H167l11.3,40.7l13.3-40.7h14.2l13.3,40.7l11.3-40.7h16.5l-18.4,60.5
				H211.5z"/>
			<path d="M246.8,261.1c0-5.3,4.4-9.4,9.5-9.4c5.3,0,9.5,4.1,9.5,9.4c0,5.3-4.3,9.5-9.5,9.5C251.2,270.6,246.8,266.3,246.8,261.1z
				 M248.4,337.6v-60.5h15.9v60.5H248.4z"/>
			<path d="M277,322.6V291h-10v-13.9h10v-16.5h16v16.5h12.3V291H293v27.3c0,3.8,2,6.6,5.5,6.6c2.4,0,4.6-0.9,5.5-1.8l3.4,12
				c-2.4,2.1-6.6,3.9-13.3,3.9C283,339.1,277,333.3,277,322.6z"/>
			<path d="M306,307.3c0-18.5,13.4-31.7,32.1-31.7c12.4,0,19.9,5.4,23.9,10.9l-10.4,9.8c-2.9-4.3-7.3-6.5-12.8-6.5
				c-9.6,0-16.4,7-16.4,17.5s6.8,17.7,16.4,17.7c5.5,0,9.9-2.5,12.8-6.5l10.4,9.6c-4,5.6-11.5,11-23.9,11
				C319.5,339.1,306,325.9,306,307.3z"/>
			<path d="M407.1,337.6v-36.8c0-8.4-4.4-11-11.3-11c-6.1,0-11,3.5-13.8,7.1v40.7h-15.9v-83.5h15.9V285c3.9-4.6,11.4-9.4,21.3-9.4
				c13.3,0,19.7,7.3,19.7,19v43H407.1z"/>
		</g>
	</g>
	<g>
		<g>
			<path d="M129.4,362.1c-2.4,0-4.5-0.8-6.1-2.4c-1.6-1.6-2.5-3.7-2.5-6.2c0-2.5,0.8-4.6,2.5-6.2c1.6-1.6,3.7-2.4,6.1-2.4
				c2.7,0,4.8,1.1,6.3,3.3l-1.7,1c-0.5-0.7-1.1-1.3-2-1.8c-0.8-0.4-1.7-0.7-2.6-0.7c-1.8,0-3.4,0.6-4.6,1.9
				c-1.2,1.3-1.8,2.9-1.8,4.9c0,2,0.6,3.6,1.8,4.8c1.2,1.3,2.7,1.9,4.6,1.9c0.9,0,1.8-0.2,2.6-0.7c0.8-0.4,1.5-1,2-1.7l1.7,0.9
				C134.1,361,132,362.1,129.4,362.1z"/>
			<path d="M162.1,359.7c-1.5,1.6-3.5,2.4-5.9,2.4c-2.4,0-4.4-0.8-5.9-2.4c-1.5-1.6-2.3-3.7-2.3-6.1c0-2.5,0.8-4.5,2.3-6.1
				c1.5-1.6,3.5-2.4,5.9-2.4c2.4,0,4.4,0.8,5.9,2.4c1.5,1.6,2.3,3.7,2.3,6.1C164.4,356,163.6,358.1,162.1,359.7z M156.2,360.3
				c1.8,0,3.3-0.6,4.4-1.9c1.1-1.3,1.7-2.9,1.7-4.8c0-2-0.6-3.6-1.7-4.8c-1.1-1.3-2.6-1.9-4.4-1.9c-1.8,0-3.3,0.6-4.4,1.9
				c-1.1,1.3-1.7,2.9-1.7,4.9c0,2,0.6,3.6,1.7,4.8C152.8,359.7,154.3,360.3,156.2,360.3z"/>
			<path d="M191.6,361.8h-2l-9.7-13.2v13.2h-2.1v-16.6h2.1l9.6,13v-13h2.1V361.8z"/>
			<path d="M211,362.1c-2.7,0-4.8-0.9-6.4-2.6l1.2-1.6c1.4,1.6,3.1,2.4,5.2,2.4c1.3,0,2.3-0.3,3-0.9c0.6-0.6,0.9-1.3,0.9-2
				c0-0.7-0.2-1.2-0.7-1.7c-0.5-0.4-1.1-0.8-1.8-1c-0.7-0.2-1.5-0.4-2.4-0.7c-0.9-0.3-1.6-0.5-2.4-0.8c-0.7-0.3-1.3-0.7-1.8-1.4
				c-0.5-0.6-0.7-1.4-0.7-2.3c0-1.4,0.5-2.5,1.6-3.3c1.1-0.9,2.4-1.3,4.1-1.3c2.4,0,4.4,0.8,5.9,2.3l-1.2,1.5c-1.2-1.3-2.8-2-4.8-2
				c-1,0-1.8,0.2-2.5,0.7c-0.6,0.5-1,1.1-1,1.9c0,0.6,0.2,1.1,0.7,1.4c0.5,0.4,1.1,0.7,1.8,0.8c0.7,0.2,1.5,0.4,2.4,0.7
				c0.9,0.3,1.6,0.6,2.4,0.9c0.7,0.3,1.3,0.8,1.8,1.5c0.5,0.7,0.7,1.5,0.7,2.5c0,1.3-0.5,2.5-1.5,3.4
				C214.6,361.7,213.1,362.1,211,362.1z"/>
			<path d="M237.2,362.1c-2.2,0-3.9-0.6-5-1.8c-1.2-1.2-1.7-2.9-1.7-4.9v-10.2h2.1v10.1c0,1.5,0.4,2.8,1.2,3.6
				c0.8,0.9,2,1.3,3.5,1.3c1.5,0,2.7-0.4,3.5-1.3c0.8-0.9,1.2-2.1,1.2-3.6v-10.1h2.1v10.1c0,2.1-0.6,3.8-1.7,5
				C241.1,361.5,239.4,362.1,237.2,362.1z"/>
			<path d="M267.6,361.8h-9.8v-16.6h2.1V360h7.7V361.8z"/>
			<path d="M286.7,361.8h-2.1v-14.8h-5.3v-1.8H292v1.8h-5.3V361.8z"/>
			<path d="M310.3,362.1c-2.7,0-4.8-0.9-6.4-2.6l1.2-1.6c1.4,1.6,3.1,2.4,5.2,2.4c1.3,0,2.3-0.3,3-0.9c0.6-0.6,0.9-1.3,0.9-2
				c0-0.7-0.2-1.2-0.7-1.7c-0.5-0.4-1.1-0.8-1.8-1c-0.7-0.2-1.5-0.4-2.4-0.7c-0.9-0.3-1.6-0.5-2.4-0.8c-0.7-0.3-1.3-0.7-1.8-1.4
				c-0.5-0.6-0.7-1.4-0.7-2.3c0-1.4,0.5-2.5,1.6-3.3c1.1-0.9,2.4-1.3,4.1-1.3c2.4,0,4.4,0.8,5.9,2.3l-1.2,1.5c-1.2-1.3-2.8-2-4.8-2
				c-1,0-1.8,0.2-2.5,0.7c-0.6,0.5-1,1.1-1,1.9c0,0.6,0.2,1.1,0.7,1.4c0.5,0.4,1.1,0.7,1.8,0.8c0.7,0.2,1.5,0.4,2.4,0.7
				c0.9,0.3,1.6,0.6,2.4,0.9c0.7,0.3,1.3,0.8,1.8,1.5c0.5,0.7,0.7,1.5,0.7,2.5c0,1.3-0.5,2.5-1.5,3.4
				C313.9,361.7,312.4,362.1,310.3,362.1z"/>
			<path d="M355.9,361.8h-9.8v-16.6h2.1V360h7.7V361.8z"/>
			<path d="M375,361.8H373v-14.8h-5.3v-1.8h12.6v1.8H375V361.8z"/>
			<path d="M398.9,361.8h-5.7v-16.6h5.7c2.5,0,4.6,0.8,6.2,2.4c1.6,1.6,2.4,3.6,2.4,5.9c0,2.4-0.8,4.4-2.3,5.9
				S401.5,361.8,398.9,361.8z M398.9,360c2,0,3.5-0.6,4.7-1.8c1.1-1.2,1.7-2.8,1.7-4.6c0-1.9-0.6-3.4-1.7-4.6
				c-1.1-1.2-2.7-1.8-4.7-1.8h-3.6V360H398.9z"/>
		</g>
	</g>
	
		<linearGradient id="SVGID_1_" gradientUnits="userSpaceOnUse" x1="376.8283" y1="161.983" x2="381.0095" y2="161.983" gradientTransform="matrix(0 -1 1 0 102.6215 749.6499)">
		<stop  offset="0" style="stop-color:#9E171B"/>
		<stop  offset="3.776129e-02" style="stop-color:#8E1823"/>
		<stop  offset="9.736701e-02" style="stop-color:#7A192E"/>
		<stop  offset="0.1605" style="stop-color:#691A37"/>
		<stop  offset="0.2272" style="stop-color:#5C193C"/>
		<stop  offset="0.2991" style="stop-color:#531940"/>
		<stop  offset="0.3801" style="stop-color:#4E1942"/>
		<stop  offset="0.4888" style="stop-color:#4C1943"/>
	</linearGradient>
	<polygon class="st0" points="276.9,368.6 276.9,372.8 252.3,372.8 252.3,368.6 	"/>
	
		<linearGradient id="SVGID_00000179618754113345906430000008570818490021303962_" gradientUnits="userSpaceOnUse" x1="160.4882" y1="762.6284" x2="183.0167" y2="762.6284" gradientTransform="matrix(0.3295 0.9442 -0.9442 0.3295 1085.3536 -151.1737)">
		<stop  offset="0" style="stop-color:#B0D235"/>
		<stop  offset="0.658" style="stop-color:#00B7B6"/>
		<stop  offset="1" style="stop-color:#00AEEF"/>
	</linearGradient>
	<circle style="fill:url(#SVGID_00000179618754113345906430000008570818490021303962_);" cx="421.9" cy="262.3" r="11.3"/>
	
		<linearGradient id="SVGID_00000132781608852345580010000014203454731426077873_" gradientUnits="userSpaceOnUse" x1="501.972" y1="161.5499" x2="521.4883" y2="161.5499" gradientTransform="matrix(0.866 -0.5 0.5 0.866 -267.683 376.8178)">
		<stop  offset="0.5112" style="stop-color:#4C1943"/>
		<stop  offset="0.6199" style="stop-color:#4E1942"/>
		<stop  offset="0.7009" style="stop-color:#531940"/>
		<stop  offset="0.7728" style="stop-color:#5C193C"/>
		<stop  offset="0.8395" style="stop-color:#691A37"/>
		<stop  offset="0.9026" style="stop-color:#7A192E"/>
		<stop  offset="0.9622" style="stop-color:#8E1823"/>
		<stop  offset="1" style="stop-color:#9E171B"/>
	</linearGradient>
	<circle style="fill:url(#SVGID_00000132781608852345580010000014203454731426077873_);" cx="256.3" cy="260.9" r="9.8"/>
	<g>
		<g>
			
				<linearGradient id="SVGID_00000018923377966650552440000016375754287601301431_" gradientUnits="userSpaceOnUse" x1="270.0371" y1="230.9963" x2="418.7546" y2="230.9963">
				<stop  offset="0" style="stop-color:#9E171B"/>
				<stop  offset="3.776129e-02" style="stop-color:#8E1823"/>
				<stop  offset="9.736701e-02" style="stop-color:#7A192E"/>
				<stop  offset="0.1605" style="stop-color:#691A37"/>
				<stop  offset="0.2272" style="stop-color:#5C193C"/>
				<stop  offset="0.2991" style="stop-color:#531940"/>
				<stop  offset="0.3801" style="stop-color:#4E1942"/>
				<stop  offset="0.4888" style="stop-color:#4C1943"/>
			</linearGradient>
			<path style="fill:url(#SVGID_00000018923377966650552440000016375754287601301431_);" d="M416.8,248.6c-1.9,2.5-4.7,3.7-7.6,3.7
				c-2,0-4.1-0.7-5.8-2c-5.5-4.2-10.9-7.7-16.3-10.6c-10.2-5.4-20-8.6-29.2-10.1c-40.6-6.5-70.4,18.8-72,20.3
				c-4,3.5-10,3.1-13.5-0.9c-3.5-4-3.1-10,0.8-13.5c0.4-0.4,6.7-5.9,17.4-11.7c6.8-3.7,15.3-7.5,25.1-10.3
				c10.1-2.8,22.5-4.8,36.5-3.7c18.8,1.4,40.3,8.2,62.7,25.4C419.2,238.5,420,244.5,416.8,248.6z"/>
		</g>
		
			<linearGradient id="SVGID_00000041992903502991400260000001029028384683706270_" gradientUnits="userSpaceOnUse" x1="290.696" y1="224.6983" x2="387.1107" y2="224.6983">
			<stop  offset="0.5112" style="stop-color:#310C34"/>
			<stop  offset="0.6138" style="stop-color:#320C33"/>
			<stop  offset="0.6902" style="stop-color:#370B31"/>
			<stop  offset="0.7581" style="stop-color:#3E0A2E"/>
			<stop  offset="0.821" style="stop-color:#470A28"/>
			<stop  offset="0.8806" style="stop-color:#520820"/>
			<stop  offset="0.9376" style="stop-color:#5F0615"/>
			<stop  offset="0.9916" style="stop-color:#6F0305"/>
			<stop  offset="1" style="stop-color:#710303"/>
		</linearGradient>
		<path style="fill:url(#SVGID_00000041992903502991400260000001029028384683706270_);" d="M387.1,239.8c-10.2-5.4-20-8.6-29.2-10.1
			c-16.7-4.3-40.8-8.3-67.2-5.8c6.8-3.7,15.3-7.5,25.1-10.3c10.1-2.8,22.5-4.8,36.5-3.7C371.5,218.7,384.6,236.3,387.1,239.8z"/>
		<g>
			
				<linearGradient id="SVGID_00000147212560609954507970000012307578658874320805_" gradientUnits="userSpaceOnUse" x1="306.9903" y1="230.9949" x2="418.7522" y2="230.9949">
				<stop  offset="0" style="stop-color:#00AEEF"/>
				<stop  offset="1" style="stop-color:#B0D235"/>
			</linearGradient>
			<path style="fill:url(#SVGID_00000147212560609954507970000012307578658874320805_);" d="M416.9,248.4c-0.1,0.1-0.1,0.2-0.2,0.2
				c-1.4,1.8-3.2,2.9-5.3,3.4c-0.8,0.2-1.5,0.3-2.3,0.3c-2,0-4.1-0.7-5.8-2c-7.9-6.1-15.7-10.7-23.2-14
				c-20-11.6-50.5-25.9-73.2-19.9c2.8-1,5.8-2,8.8-2.9c23.8-6.7,60.3-8.3,99.2,21.6C419.1,238.4,420,244.3,416.9,248.4z"/>
		</g>
	</g>
</g>
</svg>
