<?xml version="1.0" encoding="utf-8"?>
<!-- Generator: Adobe Illustrator 26.3.0, SVG Export Plug-In . SVG Version: 6.00 Build 0)  -->
<svg version="1.1" id="Layer_1" xmlns="http://www.w3.org/2000/svg" xmlns:xlink="http://www.w3.org/1999/xlink" x="0px" y="0px"
	 viewBox="0 0 512 512" style="enable-background:new 0 0 512 512;" xml:space="preserve">
<path d="M134.1,105.9L11.3,228.7C4.1,235.9,0,245.8,0,256c0,10.2,4.1,20.1,11.3,27.3l122.8,122.8c6.4,6.4,15,9.9,24,9.9
	c18.7,0,33.9-15.2,33.9-33.9V320h128c17.7,0,32-14.3,32-32v-64c0-17.7-14.3-32-32-32H192v-62.1c0-18.7-15.2-33.9-33.9-33.9
	C149.1,96,140.5,99.6,134.1,105.9z M352,96h64c17.7,0,32,14.3,32,32v256c0,17.7-14.3,32-32,32h-64c-17.7,0-32,14.3-32,32
	s14.3,32,32,32h64c53,0,96-43,96-96V128c0-53-43-96-96-96h-64c-17.7,0-32,14.3-32,32S334.3,96,352,96z"/>
</svg>
