<?xml version="1.0" encoding="utf-8"?>
<!-- Generator: Adobe Illustrator 26.3.0, SVG Export Plug-In . SVG Version: 6.00 Build 0)  -->
<svg version="1.1" id="Layer_1" xmlns="http://www.w3.org/2000/svg" xmlns:xlink="http://www.w3.org/1999/xlink" x="0px" y="0px"
	 viewBox="0 0 640 640" style="enable-background:new 0 0 640 640;" xml:space="preserve">
<style type="text/css">
	.st0{fill:#FF0000;stroke:#FF0000;stroke-width:8;stroke-miterlimit:10;}
	.st1{fill:#FFFFFF;}
</style>
<path d="M169.1,18.1c-41.6,0-75.5,33.8-75.5,75.5v452.8c0,41.6,33.8,75.5,75.5,75.5h301.9c41.6,0,75.5-33.8,75.5-75.5V219.2
	c0-20-7.9-39.3-22.1-53.4L398.7,40.2c-14.2-14.2-33.3-22.1-53.3-22.1H169.1z M477.4,225.7H367.2c-15.7,0-28.3-12.6-28.3-28.3V87.1
	L477.4,225.7z"/>
<path class="st0" d="M-185.9,508.7l-135-135c-11.3,15.8-17.9,35.2-17.9,56.1c0,53.5,43.4,96.8,96.8,96.8
	C-221,526.6-201.7,520-185.9,508.7z M-163,485.8c11.3-15.8,17.9-35.2,17.9-56.1c0-53.5-43.4-96.8-96.8-96.8
	c-20.9,0-40.3,6.6-56.1,17.9L-163,485.8z M-371.1,429.8c0-71.3,57.8-129.1,129.1-129.1s129.1,57.8,129.1,129.1
	S-170.6,558.9-242,558.9S-371.1,501.1-371.1,429.8z"/>
<path class="st1" d="M320,539c65,0,117.7-52.7,117.7-117.7S385,303.6,320,303.6s-117.7,52.7-117.7,117.7S255,539,320,539z
	 M279.1,380.4c4.3-4.3,11.3-4.3,15.6,0l25.3,25.3l25.3-25.3c4.3-4.3,11.3-4.3,15.6,0c4.3,4.3,4.3,11.3,0,15.6l-25.3,25.3l25.3,25.3
	c4.3,4.3,4.3,11.3,0,15.6s-11.3,4.3-15.6,0L320,436.8l-25.3,25.3c-4.3,4.3-11.3,4.3-15.6,0c-4.3-4.3-4.3-11.3,0-15.6l25.3-25.3
	l-25.3-25.3C274.8,391.6,274.8,384.6,279.1,380.4z"/>
</svg>
