<?xml version="1.0" encoding="utf-8"?>
<!-- Generator: Adobe Illustrator 26.3.0, SVG Export Plug-In . SVG Version: 6.00 Build 0)  -->
<svg version="1.1" id="Layer_1" xmlns="http://www.w3.org/2000/svg" xmlns:xlink="http://www.w3.org/1999/xlink" x="0px" y="0px"
	 viewBox="0 0 24 24" style="enable-background:new 0 0 24 24;" xml:space="preserve">
<style type="text/css">
	.st0{fill:#00FF00;stroke:#00FF00;stroke-miterlimit:10;}
	.st1{stroke:#000000;stroke-width:0.5;stroke-miterlimit:10;}
	.st2{stroke:#000000;stroke-width:0.25;stroke-miterlimit:10;}
	.st3{fill:none;stroke:#00FF00;stroke-width:0.25;stroke-miterlimit:10;}
</style>
<g>
	<path class="st0" d="M17.2,21.3c-1.3,0-2.4-0.5-3.3-1.4s-1.4-2-1.4-3.3s0.5-2.4,1.4-3.3s2-1.4,3.3-1.4s2.4,0.5,3.3,1.4
		s1.4,2,1.4,3.3s-0.5,2.4-1.4,3.3S18.4,21.3,17.2,21.3z"/>
	<polygon class="st1" points="16.6,18.7 19.8,15.5 18.9,14.5 16.6,16.7 15.7,15.8 14.8,16.8 	"/>
	<rect x="6.2" y="6.4" width="11.1" height="1.9"/>
	<path class="st2" d="M3.4,20.3V4.6c0-0.5,0.2-0.9,0.5-1.3s0.8-0.5,1.3-0.5h13c0.5,0,0.9,0.2,1.3,0.5c0.4,0.4,0.5,0.8,0.5,1.3v6.2
		c-0.3-0.1-0.6-0.3-0.9-0.3c-0.3-0.1-0.6-0.2-0.9-0.2V4.6h-13v13h5.6c0.1,0.5,0.2,0.9,0.4,1.4c0.2,0.4,0.4,0.8,0.6,1.2l-0.1,0.1
		l-1.4-1.4L9,20.3l-1.4-1.4l-1.4,1.4l-1.4-1.4L3.4,20.3z"/>
	<path d="M6.2,15.7h4.7c0-0.3,0.1-0.6,0.2-0.9c0.1-0.3,0.2-0.6,0.3-0.9H6.2V15.7z"/>
	<path d="M6.2,12h6.6c0.6-0.6,1.3-1,2-1.4c0.8-0.3,1.6-0.5,2.5-0.5H6.2V12z"/>
	<path class="st2" d="M5.3,17.6v-13V17.6z"/>
	<line class="st3" x1="35.1" y1="17.8" x2="35.1" y2="17.8"/>
</g>
</svg>
