<?xml version="1.0" encoding="utf-8"?>
<!-- Generator: Adobe Illustrator 26.3.0, SVG Export Plug-In . SVG Version: 6.00 Build 0)  -->
<svg version="1.1" id="Layer_1" xmlns="http://www.w3.org/2000/svg" xmlns:xlink="http://www.w3.org/1999/xlink" x="0px" y="0px"
	 viewBox="0 0 640 640" style="enable-background:new 0 0 640 640;" xml:space="preserve">
<path d="M128,64c-35.3,0-64,28.7-64,64v384c0,35.3,28.7,64,64,64h80V464c0-35.3,28.7-64,64-64h176V234.5c0-17-6.7-33.3-18.7-45.3
	L322.7,82.7c-12-12-28.2-18.7-45.2-18.7H128z M389.5,240H296c-13.3,0-24-10.7-24-24v-93.5L389.5,240z M272,444c-11,0-20,9-20,20v128
	c0,11,9,20,20,20s20-9,20-20v-28h12c33.1,0,60-26.9,60-60s-26.9-60-60-60H272z M304,524h-12v-40h12c11,0,20,9,20,20S315,524,304,524
	z M400,444c-11,0-20,9-20,20v128c0,11,9,20,20,20h32c28.7,0,52-23.3,52-52v-64c0-28.7-23.3-52-52-52H400z M420,572v-88h12
	c6.6,0,12,5.4,12,12v64c0,6.6-5.4,12-12,12H420z M508,464v128c0,11,9,20,20,20s20-9,20-20v-44h28c11,0,20-9,20-20s-9-20-20-20h-28
	v-24h28c11,0,20-9,20-20s-9-20-20-20h-48C517,444,508,453,508,464z"/>
</svg>
