<?xml version="1.0" encoding="utf-8"?>
<!-- Generator: Adobe Illustrator 26.3.0, SVG Export Plug-In . SVG Version: 6.00 Build 0)  -->
<svg version="1.1" id="Layer_1" xmlns="http://www.w3.org/2000/svg" xmlns:xlink="http://www.w3.org/1999/xlink" x="0px" y="0px"
	 viewBox="0 0 640 640" style="enable-background:new 0 0 640 640;" xml:space="preserve">
<style type="text/css">
	.st0{stroke:#000000;stroke-width:18;stroke-miterlimit:10;}
</style>
<path class="st0" d="M253.7,52.9c3.3-16,17.4-27.6,33.9-27.6h64.8c16.5,0,30.7,11.6,33.9,27.6l15.7,75.9
	c15.3,6.5,29.6,14.8,42.6,24.7l73.5-24.4c15.6-5.2,32.7,1.3,41,15.6l32.4,56.1c8.2,14.3,5.3,32.3-7,43.2l-57.8,51.4
	c1,8,1.4,16.3,1.4,24.6s-0.5,16.6-1.4,24.6l57.9,51.5c12.4,10.9,15.2,29,7,43.2l-32.4,56.1c-8.2,14.2-25.4,20.8-41,15.6l-73.5-24.4
	c-13.1,9.9-27.4,18.1-42.6,24.7l-15.6,75.7c-3.4,16.1-17.6,27.6-33.9,27.6h-64.8c-16.5,0-30.7-11.6-33.9-27.6l-15.6-75.7
	c-15.3-6.5-29.5-14.8-42.6-24.7L121.9,511c-15.6,5.2-32.7-1.3-41-15.6l-32.4-56.1c-8.2-14.3-5.3-32.3,7-43.2l57.9-51.5
	c-1-8-1.4-16.3-1.4-24.6s0.5-16.6,1.4-24.6l-57.9-51.5c-12.4-10.9-15.2-29-7-43.2l32.4-56.1c8.2-14.3,25.4-20.8,41-15.6l73.5,24.4
	c13.1-9.9,27.4-18.1,42.6-24.7L253.7,52.9z M320,406.7c47.9-0.2,86.6-39.1,86.4-87s-39.1-86.6-87-86.4s-86.6,39.1-86.4,87
	S272.1,406.9,320,406.7z"/>
</svg>
