<?xml version="1.0" encoding="utf-8"?>
<!-- Generator: Adobe Illustrator 26.3.0, SVG Export Plug-In . SVG Version: 6.00 Build 0)  -->
<svg version="1.1" id="Layer_1" xmlns="http://www.w3.org/2000/svg" xmlns:xlink="http://www.w3.org/1999/xlink" x="0px" y="0px"
	 viewBox="0 0 640 640" style="enable-background:new 0 0 640 640;" xml:space="preserve">
<style type="text/css">
	.st0{fill:#AD00FF;}
	.st1{fill:#7F00CD;}
</style>
<path class="st0" d="M633,375.9c0,92.6-75,167.7-167.7,167.7h-11.2c-24.7,0-44.7-20-44.7-44.7c0-24.7,20-44.7,44.7-44.7h11.2
	c43.2,0,78.2-35.1,78.2-78.2v-11.2h-89.4c-49.3,0-89.4-40.1-89.4-89.4v-89.4c0-49.3,40.1-89.4,89.4-89.4h89.4
	c49.3,0,89.4,40.1,89.4,89.4V375.9z"/>
<g>
	<path class="st1" d="M275,375.3c0,92.6-75.1,167.7-167.7,167.7h-10c-25.8,0-47-21.5-45.4-47.3c1.4-23.3,20.7-41.7,44.4-41.7h11.8
		c43,0,77.9-34.9,77.9-77.9V365H96c-49.2,0-89-39.8-89-89v-90.6C7,136,47,96,96.4,96h89.1c49.4,0,89.4,40,89.4,89.4V375.3z"/>
</g>
</svg>
