<?xml version="1.0" encoding="utf-8"?>
<!-- Generator: Adobe Illustrator 26.3.0, SVG Export Plug-In . SVG Version: 6.00 Build 0)  -->
<svg version="1.1" id="Layer_1" xmlns="http://www.w3.org/2000/svg" xmlns:xlink="http://www.w3.org/1999/xlink" x="0px" y="0px"
	 viewBox="0 0 24 24" style="enable-background:new 0 0 24 24;" xml:space="preserve">
<path d="M4.7,23.5c-0.6,0-1.1-0.2-1.5-0.7s-0.6-1-0.6-1.6V5.1c0-0.6,0.2-1.2,0.6-1.6s0.9-0.7,1.5-0.7h4.4c0.2-0.7,0.6-1.2,1.1-1.7
	s1.1-0.6,1.8-0.6s1.3,0.2,1.8,0.6s0.9,1,1.1,1.7h4.4c0.6,0,1.1,0.2,1.5,0.7c0.4,0.5,0.6,1,0.6,1.6v16.1c0,0.6-0.2,1.2-0.6,1.6
	c-0.4,0.5-0.9,0.7-1.5,0.7H4.7z M4.7,21.2h14.5V5.1H4.7V21.2z M6.8,18.9h7.3v-2.3H6.8V18.9z M6.8,14.3h10.4V12H6.8V14.3z M6.8,9.7
	h10.4V7.4H6.8V9.7z M12,4.2c0.2,0,0.4-0.1,0.6-0.2c0.1-0.2,0.2-0.4,0.2-0.6s-0.1-0.5-0.2-0.6c-0.1-0.2-0.3-0.2-0.6-0.2
	s-0.4,0.1-0.6,0.2c-0.1,0.2-0.2,0.4-0.2,0.6s0.1,0.5,0.2,0.6C11.6,4.1,11.8,4.2,12,4.2z M4.7,21.2V5.1V21.2z"/>
</svg>
