<?xml version="1.0" encoding="utf-8"?>
<!-- Generator: Adobe Illustrator 26.3.0, SVG Export Plug-In . SVG Version: 6.00 Build 0)  -->
<svg version="1.1" id="Layer_1" xmlns="http://www.w3.org/2000/svg" xmlns:xlink="http://www.w3.org/1999/xlink" x="0px" y="0px"
	 viewBox="0 0 512 512" style="enable-background:new 0 0 512 512;" xml:space="preserve">
<path d="M0,416c0,17.7,14.3,32,32,32h54.7c12.3,28.3,40.5,48,73.3,48s61-19.7,73.3-48H480c17.7,0,32-14.3,32-32s-14.3-32-32-32
	H233.3c-12.3-28.3-40.5-48-73.3-48s-61,19.7-73.3,48H32C14.3,384,0,398.3,0,416z M128,416c0-17.7,14.3-32,32-32s32,14.3,32,32
	s-14.3,32-32,32S128,433.7,128,416z M320,256c0-17.7,14.3-32,32-32s32,14.3,32,32s-14.3,32-32,32S320,273.7,320,256z M352,176
	c-32.8,0-61,19.7-73.3,48H32c-17.7,0-32,14.3-32,32s14.3,32,32,32h246.7c12.3,28.3,40.5,48,73.3,48s61-19.7,73.3-48H480
	c17.7,0,32-14.3,32-32s-14.3-32-32-32h-54.7C413,195.7,384.8,176,352,176z M192,128c-17.7,0-32-14.3-32-32s14.3-32,32-32
	s32,14.3,32,32S209.7,128,192,128z M265.3,64C253,35.7,224.8,16,192,16s-61,19.7-73.3,48H32C14.3,64,0,78.3,0,96s14.3,32,32,32h86.7
	c12.3,28.3,40.5,48,73.3,48s61-19.7,73.3-48H480c17.7,0,32-14.3,32-32s-14.3-32-32-32H265.3z"/>
</svg>
