<?xml version="1.0" encoding="utf-8"?>
<!-- Generator: Adobe Illustrator 26.3.0, SVG Export Plug-In . SVG Version: 6.00 Build 0)  -->
<svg version="1.1" id="Layer_1" xmlns="http://www.w3.org/2000/svg" xmlns:xlink="http://www.w3.org/1999/xlink" x="0px" y="0px"
	 viewBox="0 0 640 512" style="enable-background:new 0 0 640 512;" xml:space="preserve">
<path d="M112,0C85.5,0,64,21.5,64,48v48H16c-8.8,0-16,7.2-16,16s7.2,16,16,16h48h208c8.8,0,16,7.2,16,16s-7.2,16-16,16H64H48
	c-8.8,0-16,7.2-16,16s7.2,16,16,16h16h176c8.8,0,16,7.2,16,16s-7.2,16-16,16H64H16c-8.8,0-16,7.2-16,16s7.2,16,16,16h48h144
	c8.8,0,16,7.2,16,16s-7.2,16-16,16H64v128c0,53,43,96,96,96s96-43,96-96h128c0,53,43,96,96,96s96-43,96-96h32c17.7,0,32-14.3,32-32
	s-14.3-32-32-32v-64v-32v-18.7c0-17-6.7-33.3-18.7-45.3L512,114.7c-12-12-28.3-18.7-45.3-18.7H416V48c0-26.5-21.5-48-48-48H112z
	 M544,237.3V256H416v-96h50.7L544,237.3z M160,368c26.5,0,48,21.5,48,48s-21.5,48-48,48s-48-21.5-48-48S133.5,368,160,368z M432,416
	c0-26.5,21.5-48,48-48s48,21.5,48,48s-21.5,48-48,48S432,442.5,432,416z"/>
</svg>
