<?xml version="1.0" encoding="utf-8"?>
<!-- Generator: Adobe Illustrator 26.3.0, SVG Export Plug-In . SVG Version: 6.00 Build 0)  -->
<svg version="1.1" id="Layer_1" xmlns="http://www.w3.org/2000/svg" xmlns:xlink="http://www.w3.org/1999/xlink" x="0px" y="0px"
	 viewBox="0 0 512 512" style="enable-background:new 0 0 512 512;" xml:space="preserve">
<style type="text/css">
	.st0{fill:#ED1C24;}
</style>
<path class="st0" d="M256,512c141.4,0,256-114.6,256-256S397.4,0,256,0S0,114.6,0,256S114.6,512,256,512z M113.3,113
	c16.6-16.6,43.5-16.6,59.9,0l83.1,83.1l83.1-83.1c16.6-16.6,43.5-16.6,59.9,0s16.6,43.5,0,59.9L316.2,256l83.1,83.1
	c16.6,16.6,16.6,43.5,0,59.9s-43.5,16.6-59.9,0l-83.1-83.1L173.2,399c-16.6,16.6-43.5,16.6-59.9,0c-16.4-16.6-16.6-43.5,0-59.9
	l83.1-83.1l-83.1-83.1C96.7,156.3,96.7,129.4,113.3,113z"/>
</svg>
